<svg width="73" height="15" viewBox="0 0 73 15" fill="none" xmlns="http://www.w3.org/2000/svg">
<path d="M70.0809 14.6927V9.02124C70.0809 8.36605 69.8693 7.82689 69.4461 7.40375C69.0367 6.9806 68.5043 6.76903 67.8491 6.76903C67.4123 6.76903 67.0233 6.86458 66.6821 7.05568C66.3408 7.24677 66.0747 7.51294 65.8836 7.85419C65.6925 8.19543 65.5969 8.58445 65.5969 9.02124L64.7165 8.52985C64.7165 7.77911 64.8803 7.1171 65.2079 6.54381C65.5355 5.95688 65.9859 5.49961 66.5592 5.17202C67.1462 4.83078 67.8014 4.66016 68.5248 4.66016C69.2619 4.66016 69.9171 4.85125 70.4903 5.23344C71.0636 5.60199 71.5141 6.08655 71.8417 6.68714C72.1693 7.27407 72.3331 7.88831 72.3331 8.52985V14.6927H70.0809ZM63.3447 14.6927V4.8649H65.5969V14.6927H63.3447Z" fill="white"/>
<path d="M58.567 14.6928V4.865H60.8192V14.6928H58.567ZM59.6932 3.06324C59.311 3.06324 58.9902 2.93356 58.7308 2.67422C58.4852 2.41488 58.3623 2.09411 58.3623 1.71192C58.3623 1.32972 58.4852 1.00896 58.7308 0.749612C58.9902 0.490268 59.311 0.360596 59.6932 0.360596C60.089 0.360596 60.4098 0.490268 60.6555 0.749612C60.9011 1.00896 61.024 1.32972 61.024 1.71192C61.024 2.09411 60.9011 2.41488 60.6555 2.67422C60.4098 2.93356 60.089 3.06324 59.6932 3.06324Z" fill="white"/>
<path d="M52.1751 14.8974C51.1924 14.8974 50.3051 14.679 49.5135 14.2422C48.7354 13.7918 48.1144 13.1776 47.6503 12.3995C47.1998 11.6215 46.9746 10.7479 46.9746 9.77879C46.9746 8.80967 47.1998 7.94291 47.6503 7.17852C48.1007 6.40049 48.7081 5.78626 49.4725 5.33582C50.2505 4.88538 51.1105 4.66016 52.0523 4.66016C52.9668 4.66016 53.7722 4.87173 54.4683 5.29487C55.1781 5.71801 55.7309 6.29812 56.1267 7.0352C56.5362 7.77229 56.741 8.61174 56.741 9.55357C56.741 9.71737 56.7273 9.88799 56.7 10.0654C56.6864 10.2292 56.6591 10.4135 56.6181 10.6183H48.5511V8.77554H55.4511L54.6116 9.51262C54.5843 8.91204 54.4683 8.407 54.2635 7.99751C54.0588 7.58802 53.7653 7.27407 53.3831 7.05568C53.0146 6.83728 52.5573 6.72808 52.0113 6.72808C51.4381 6.72808 50.9398 6.85093 50.5167 7.09663C50.0936 7.34232 49.766 7.69039 49.5339 8.14083C49.3019 8.57762 49.1859 9.10313 49.1859 9.71737C49.1859 10.3316 49.3087 10.8708 49.5544 11.3349C49.8001 11.7989 50.1482 12.1607 50.5986 12.42C51.049 12.6657 51.5677 12.7886 52.1547 12.7886C52.6597 12.7886 53.1238 12.6998 53.5469 12.5224C53.9837 12.3449 54.3523 12.0856 54.6526 11.7443L56.0858 13.198C55.608 13.7577 55.0279 14.1808 54.3454 14.4675C53.663 14.7541 52.9395 14.8974 52.1751 14.8974Z" fill="white"/>
<path d="M41.6456 14.6927V0.77002H43.8978V14.6927H41.6456ZM39.291 6.91238V4.86493H46.2524V6.91238H39.291Z" fill="white"/>
<path d="M32.3898 14.8974C31.5025 14.8974 30.6972 14.6722 29.9738 14.2218C29.264 13.7713 28.6975 13.1639 28.2744 12.3995C27.8649 11.6215 27.6602 10.7547 27.6602 9.79927C27.6602 8.83014 27.8649 7.96338 28.2744 7.199C28.6975 6.42097 29.264 5.80673 29.9738 5.35629C30.6972 4.8922 31.5025 4.66016 32.3898 4.66016C33.1405 4.66016 33.8025 4.82395 34.3758 5.15154C34.9627 5.46549 35.4268 5.90228 35.7681 6.46192C36.1093 7.02155 36.2799 7.65626 36.2799 8.36605V11.1915C36.2799 11.9013 36.1093 12.536 35.7681 13.0957C35.4405 13.6553 34.9832 14.0989 34.3963 14.4265C33.8093 14.7405 33.1405 14.8974 32.3898 14.8974ZM32.7583 12.7681C33.591 12.7681 34.2598 12.4883 34.7648 11.9286C35.2835 11.369 35.5429 10.6524 35.5429 9.77879C35.5429 9.19186 35.4268 8.67317 35.1948 8.22273C34.9627 7.77229 34.6352 7.42422 34.212 7.17852C33.8025 6.91918 33.318 6.78951 32.7583 6.78951C32.2123 6.78951 31.7278 6.91918 31.3046 7.17852C30.8951 7.42422 30.5675 7.77229 30.3218 8.22273C30.0898 8.67317 29.9738 9.19186 29.9738 9.77879C29.9738 10.3657 30.0898 10.8844 30.3218 11.3349C30.5675 11.7853 30.8951 12.1402 31.3046 12.3995C31.7278 12.6452 32.2123 12.7681 32.7583 12.7681ZM35.3995 14.6927V12.0515L35.7886 9.65595L35.3995 7.2809V4.8649H37.6517V14.6927H35.3995Z" fill="white"/>
<path d="M22.3106 14.6927V0.77002H24.5628V14.6927H22.3106ZM19.9561 6.91238V4.86493H26.9174V6.91238H19.9561Z" fill="white"/>
<path d="M15.2326 14.8974C14.6867 14.8974 14.1611 14.8292 13.6561 14.6927C13.1511 14.5425 12.687 14.3378 12.2638 14.0785C11.8407 13.8055 11.4721 13.4779 11.1582 13.0957L12.5914 11.6625C12.9327 12.0583 13.3217 12.3586 13.7585 12.5633C14.2089 12.7544 14.714 12.85 15.2736 12.85C15.7786 12.85 16.1608 12.7749 16.4202 12.6248C16.6795 12.4746 16.8092 12.2562 16.8092 11.9696C16.8092 11.6693 16.6863 11.4372 16.4406 11.2734C16.1949 11.1096 15.8742 10.9731 15.4783 10.8639C15.0961 10.7411 14.6867 10.6182 14.2499 10.4954C13.8267 10.3726 13.4172 10.2088 13.0214 10.004C12.6392 9.78562 12.3253 9.49215 12.0796 9.12361C11.8339 8.75507 11.711 8.27733 11.711 7.69039C11.711 7.0625 11.8543 6.52334 12.141 6.0729C12.4413 5.62246 12.8576 5.27439 13.3899 5.0287C13.9359 4.783 14.5843 4.66016 15.335 4.66016C16.1267 4.66016 16.8228 4.80348 17.4234 5.09012C18.0377 5.36311 18.5495 5.77943 18.959 6.33907L17.5258 7.77229C17.2391 7.41739 16.9116 7.15123 16.543 6.97378C16.1745 6.79633 15.7513 6.70761 15.2736 6.70761C14.8231 6.70761 14.4751 6.77586 14.2294 6.91236C13.9837 7.04885 13.8608 7.24677 13.8608 7.50612C13.8608 7.77911 13.9837 7.99068 14.2294 8.14083C14.4751 8.29098 14.789 8.42065 15.1712 8.52984C15.5671 8.63904 15.9765 8.76189 16.3997 8.89839C16.8365 9.02123 17.246 9.19868 17.6282 9.43073C18.024 9.64912 18.3448 9.94942 18.5905 10.3316C18.8362 10.7001 18.959 11.1847 18.959 11.7853C18.959 12.7408 18.6246 13.4983 17.9558 14.058C17.2869 14.6176 16.3792 14.8974 15.2326 14.8974Z" fill="white"/>
<path d="M0.249023 14.6928V0.360596H2.6036V14.6928H0.249023ZM1.86651 14.6928V12.543H9.89254V14.6928H1.86651ZM1.86651 8.40709V6.33916H9.1964V8.40709H1.86651ZM1.86651 2.51042V0.360596H9.79016V2.51042H1.86651Z" fill="white"/>
</svg>
