<svg width="12" height="12" viewBox="0 0 12 12" fill="none" xmlns="http://www.w3.org/2000/svg">
<g clip-path="url(#clip0_139_8503)">
<path d="M6 12.0066C9.31371 12.0066 12 9.32034 12 6.00664C12 2.69293 9.31371 0.00666809 6 0.00666809C2.68629 0.00666809 0 2.69293 0 6.00664C0 9.32034 2.68629 12.0066 6 12.0066Z" fill="#333333"/>
<path d="M4.76837e-07 18C3.31371 18 6 15.3137 6 12C6 8.68629 3.31371 6 4.76837e-07 6C-3.31371 6 -6 8.68629 -6 12C-6 15.3137 -3.31371 18 4.76837e-07 18Z" fill="#141414"/>
<path d="M12 18C15.3137 18 18 15.3137 18 12C18 8.68629 15.3137 6 12 6C8.68629 6 6 8.68629 6 12C6 15.3137 8.68629 18 12 18Z" fill="#141414"/>
<path d="M4.76837e-07 6C3.31371 6 6 3.31371 6 4.76837e-07C6 -3.31371 3.31371 -6 4.76837e-07 -6C-3.31371 -6 -6 -3.31371 -6 4.76837e-07C-6 3.31371 -3.31371 6 4.76837e-07 6Z" fill="#141414"/>
<path d="M12 6C15.3137 6 18 3.31371 18 4.76837e-07C18 -3.31371 15.3137 -6 12 -6C8.68629 -6 6 -3.31371 6 4.76837e-07C6 3.31371 8.68629 6 12 6Z" fill="#141414"/>
</g>
<defs>
<clipPath id="clip0_139_8503">
<rect width="12" height="12" fill="white"/>
</clipPath>
</defs>
</svg>
