<svg width="6" height="6" viewBox="0 0 6 6" fill="none" xmlns="http://www.w3.org/2000/svg">
<g clip-path="url(#clip0_139_8510)">
<path d="M2.8 5.80309C4.3464 5.80309 5.6 4.54949 5.6 3.00309C5.6 1.4567 4.3464 0.20311 2.8 0.20311C1.2536 0.20311 0 1.4567 0 3.00309C0 4.54949 1.2536 5.80309 2.8 5.80309Z" fill="#333333"/>
<path d="M0.000195503 8.6C1.54659 8.6 2.8002 7.3464 2.8002 5.8C2.8002 4.2536 1.54659 3 0.000195503 3C-1.5462 3 -2.7998 4.2536 -2.7998 5.8C-2.7998 7.3464 -1.5462 8.6 0.000195503 8.6Z" fill="#141414"/>
<path d="M5.5998 8.6C7.1462 8.6 8.39981 7.3464 8.39981 5.8C8.39981 4.2536 7.1462 3 5.5998 3C4.05341 3 2.7998 4.2536 2.7998 5.8C2.7998 7.3464 4.05341 8.6 5.5998 8.6Z" fill="#141414"/>
<path d="M0.000195503 2.99999C1.54659 2.99999 2.8002 1.74639 2.8002 0.199994C2.8002 -1.3464 1.54659 -2.60001 0.000195503 -2.60001C-1.5462 -2.60001 -2.7998 -1.3464 -2.7998 0.199994C-2.7998 1.74639 -1.5462 2.99999 0.000195503 2.99999Z" fill="#141414"/>
<path d="M5.5998 2.99999C7.1462 2.99999 8.39981 1.74639 8.39981 0.199994C8.39981 -1.3464 7.1462 -2.60001 5.5998 -2.60001C4.05341 -2.60001 2.7998 -1.3464 2.7998 0.199994C2.7998 1.74639 4.05341 2.99999 5.5998 2.99999Z" fill="#141414"/>
</g>
<defs>
<clipPath id="clip0_139_8510">
<rect width="5.6" height="5.6" fill="white" transform="translate(0 0.199997)"/>
</clipPath>
</defs>
</svg>
